<svg width="148" height="161" viewBox="0 0 148 161" fill="none" xmlns="http://www.w3.org/2000/svg">
<path fill-rule="evenodd" clip-rule="evenodd" d="M5.76891 49.1706C20.6471 47.1148 28.4402 49.4036 32.6235 54.1956C36.8113 58.986 37.2852 66.0146 37.7547 73.0449C38.0527 77.9067 38.3572 82.8676 39.6692 87.0355C41.0359 91.3856 43.5383 94.9951 48.2907 97.1313C49.4194 97.6121 51.0261 97.8079 52.9755 97.5673C55.6616 97.3486 59.1172 96.5297 63.0404 95.2267C78.0051 90.4973 100.344 79.8904 115.179 76.6328C118.571 75.8382 121.576 75.4966 123.96 75.6984C126.049 75.9118 127.639 76.5199 128.484 77.8206C129.171 78.877 129.337 80.3369 129.049 82.377C128.543 85.8211 126.584 90.4322 122.943 96.7047C119.755 102.194 115.745 107.288 112.417 112.73C107.201 121.232 101.987 130.038 98.6057 138.952C98.4007 139.539 98.676 140.144 99.2322 140.336C99.8234 140.617 100.435 140.281 100.64 139.695C103.972 130.901 109.122 122.221 114.269 113.847C117.643 108.489 121.632 103.302 124.832 97.8082C128.682 91.2526 130.676 86.3232 131.198 82.6697C131.629 80.0669 131.254 78.0776 130.314 76.6105C129.363 75.1472 127.77 74.1343 125.679 73.7183C122.908 73.1572 119.124 73.4926 114.699 74.4805C99.8148 77.7571 77.3928 88.3967 62.3762 93.1461C58.6299 94.3812 55.3223 95.1428 52.7808 95.4076C51.2791 95.5779 50.0563 95.5394 49.1529 95.0737C45.0699 93.2898 42.942 90.1466 41.7427 86.3417C40.4898 82.3542 40.2246 77.5813 39.9096 72.8275C39.4436 65.3897 38.7392 57.8399 34.2695 52.7515C29.7964 47.6645 21.4549 44.7734 5.48356 47.0457C4.86596 47.0797 4.45219 47.6446 4.52888 48.2245C4.60558 48.8044 5.18528 49.2931 5.76891 49.1706Z" fill="#feb06a"/>
<path fill-rule="evenodd" clip-rule="evenodd" d="M5.43506 45.9233C5.54375 45.78 5.86386 45.4536 6.1506 45.242C7.50608 44.1122 9.72217 42.6527 10.3642 42.2031C15.8972 37.8448 22.316 33.5526 29.0434 30.9699C29.6074 30.7534 29.8941 30.1349 29.6891 29.6043C29.4501 28.9851 28.8223 28.7182 28.2583 28.9347C21.3363 31.5921 14.7469 36.0513 8.99739 40.3913C8.37937 40.9332 6.12695 42.4073 4.74714 43.5463C4.24554 43.942 3.84259 44.3004 3.61416 44.5912C3.43882 44.8616 3.33965 45.1024 3.30254 45.3198C3.1664 45.7783 3.23776 46.3608 3.45933 46.8851C3.7171 47.497 4.19347 48.1264 4.81257 48.7012C6.06927 49.9452 7.99076 51.2384 9.5165 52.2776C10.3863 52.8577 11.1393 53.3812 11.4563 53.7673C14.1793 57.0889 14.4314 61.7649 11.2885 66.6275C10.971 67.1556 11.1106 67.8135 11.6145 68.1278C12.1184 68.4422 12.7926 68.2847 13.1452 67.8446C16.8867 61.9398 16.4403 56.4238 13.1582 52.4029C12.3515 51.3923 9.38518 49.6879 7.24838 47.9694C6.60827 47.4026 6.06719 46.8989 5.71512 46.4247C5.60403 46.2642 5.54018 46.1872 5.46779 46.0119C5.46558 46.0127 5.42843 45.9258 5.43506 45.9233Z" fill="#feb06a"/>
</svg>
