<svg width="112" height="89" viewBox="0 0 112 89" fill="none"
    xmlns="http://www.w3.org/2000/svg">
    <path fill-rule="evenodd" clip-rule="evenodd" d="M104.283 47.8765C72.1414 71.053 32.2194 67.4154 9.49721 34.5166C8.74086 33.4213 7.23997 33.1462 6.15087 33.8897C5.05283 34.6515 4.7768 36.1542 5.53316 37.2495C29.8799 72.5298 72.6524 76.6215 107.099 51.792C108.175 51.0194 108.424 49.5032 107.647 48.4209C106.862 47.3569 105.359 47.1039 104.283 47.8765Z" fill="#feb06a"/>
    <path d="M42.3962 33.8724C45.8827 35.568 50.0837 34.1163 51.7793 30.6297C53.475 27.1432 52.0231 22.9422 48.5365 21.2466C45.05 19.551 40.8491 21.0028 39.1535 24.4893C37.4578 27.9759 38.9096 32.1768 42.3962 33.8724Z" fill="#feb06a"/>
    <path d="M71.7971 39.8671C75.2155 41.5296 79.3344 40.1063 80.9969 36.6879C82.6594 33.2695 81.2358 29.1506 77.8174 27.4881C74.399 25.8257 70.2802 27.2491 68.6178 30.6675C66.9553 34.0859 68.3787 38.2047 71.7971 39.8671Z" fill="#feb06a"/>
</svg>
