<svg width="1411" height="145" viewBox="0 0 1411 145" fill="none"
    xmlns="http://www.w3.org/2000/svg">
    <path d="M1383.76 81.0295H1410.28V63.212H1383.76L1396.6 39.0987L1378.71 32.7321L1362.48 63.212H1344.95L1363.03 29.2541L1345.14 22.8875L1323.67 63.212L1305.29 63.212L1327.36 21.7524L1309.48 15.3858L1284.01 63.212H1265.39L1292.39 12.5024L1274.51 6.13578L1244.12 63.212H1227.16L1257.43 6.3666L1239.54 0L1205.88 63.212H1192.12L1222.39 6.3666L1204.51 0L1170.85 63.212H1152.26L1182.53 6.3666L1164.64 0L1130.99 63.212H1116.94L1147.21 6.3666L1129.33 0L1095.67 63.212H1080.23L1110.5 6.3666L1092.61 0L1058.95 63.212L1040.71 63.212L1070.98 6.3666L1053.1 0L1019.44 63.212H999.102L1029.37 6.3666L1011.48 0L977.826 63.212H962.736L993.004 6.3666L975.119 0L941.46 63.212H922.056L949.295 12.0574L931.409 5.69078L900.781 63.212H886.732L909.313 20.8034L891.428 14.4368L865.456 63.212H848.98L863.505 35.9322L845.619 29.5656L827.704 63.212L705 63.2119V81.0294L827.704 81.0294L845.619 114.676L863.505 108.309L848.98 81.0294H865.456L891.428 129.804L909.313 123.438L886.732 81.0294H900.781L931.409 138.55L949.295 132.184L922.057 81.0294H941.46L975.119 144.241L993.005 137.875L962.736 81.0294H977.827L1011.49 144.241L1029.37 137.875L999.102 81.0295H1019.44L1053.1 144.241L1070.98 137.875L1040.71 81.0295H1058.95L1092.61 144.241L1110.5 137.875L1080.23 81.0295H1095.67L1129.33 144.241L1147.21 137.875L1116.94 81.0295H1130.99L1164.64 144.241L1182.53 137.875L1152.26 81.0295H1170.85L1204.51 144.241L1222.39 137.875L1192.12 81.0295H1205.88L1239.54 144.241L1257.43 137.875L1227.16 81.0295H1244.12L1274.51 138.105L1292.39 131.739L1265.39 81.0295H1284.01L1309.48 128.855L1327.36 122.489L1305.29 81.0295H1323.67L1345.14 121.354L1363.03 114.987L1344.95 81.0295H1362.48L1378.71 111.509L1396.6 105.143L1383.76 81.0295Z" fill="#4f84a6"/>
    <path d="M26.5253 63.2118H0L0 81.0292H26.5254L13.6858 105.143L31.5716 111.509L47.8013 81.0292H65.3364L47.2548 114.987L65.1406 121.354L86.6122 81.0292H104.998L82.9216 122.489L100.807 128.855L126.273 81.0292H144.891L117.89 131.739L135.775 138.105L166.167 81.0292H183.125L152.857 137.875L170.743 144.241L204.401 81.0292H218.16L187.891 137.875L205.777 144.241L239.435 81.0292H258.023L227.754 137.875L245.64 144.241L279.299 81.0292H293.34L263.072 137.875L280.958 144.241L314.616 81.0292H330.056L299.788 137.875L317.674 144.241L351.332 81.0292H369.57L339.301 137.875L357.187 144.241L390.846 81.0293H411.182L380.913 137.875L398.799 144.241L432.457 81.0293H447.548L417.279 137.875L435.165 144.241L468.824 81.0293H488.227L460.989 132.184L478.875 138.55L509.503 81.0293H523.552L500.97 123.438L518.856 129.804L544.828 81.0293H561.304L546.779 108.309L564.664 114.676L582.58 81.0293L705.284 81.0293V63.2118L582.58 63.2118L564.664 29.5653L546.779 35.9319L561.304 63.2118H544.828L518.856 14.4368L500.97 20.8034L523.552 63.2118H509.503L478.875 5.69079L460.989 12.0574L488.227 63.2118L468.824 63.2118L435.165 1.42074e-05L417.279 6.36662L447.548 63.2118H432.457L398.799 1.42074e-05L380.913 6.36662L411.181 63.2118H390.845L357.187 1.42074e-05L339.301 6.36662L369.57 63.2118H351.332L317.674 1.42074e-05L299.788 6.36662L330.056 63.2118H314.616L280.958 1.42074e-05L263.072 6.36662L293.34 63.2118H279.298L245.64 1.42074e-05L227.754 6.36662L258.022 63.2118H239.435L205.777 1.42074e-05L187.891 6.36662L218.159 63.2118H204.401L170.743 1.42074e-05L152.857 6.36662L183.125 63.2118H166.167L135.775 6.13585L117.889 12.5025L144.891 63.2118H126.273L100.807 15.386L82.9215 21.7526L104.997 63.2118H86.6121L65.1405 22.8874L47.2547 29.254L65.3363 63.2118H47.8011L31.5715 32.7321L13.6857 39.0987L26.5253 63.2118Z" fill="#4f84a6"/>
</svg>
