<svg width="701" height="51" viewBox="0 0 701 51" fill="none"
    xmlns="http://www.w3.org/2000/svg">
    <path fill-rule="evenodd" clip-rule="evenodd" d="M403.031 40.7121C435.903 38.9211 468.385 36.8335 500.057 34.6066C544.892 31.4558 589.709 28.219 634.233 23.4753C648.249 21.9779 662.488 20.9523 676.411 19.1325C685.151 17.9918 696.739 16.3786 698.258 16.0544C699.052 15.8703 699.396 15.606 699.507 15.5181C700.288 14.9024 700.136 14.322 699.683 13.8752C699.502 13.6835 699.042 13.2151 697.784 13.1685C613.678 9.9563 527.865 19.8287 443.734 21.9489C297.835 25.6075 147.402 21.6035 2.4453 10.2242C1.18005 10.1345 -0.0407823 10.6919 -0.204777 11.493C-0.404185 12.273 0.519152 13.0152 1.7844 13.1049C146.987 24.5023 297.667 28.5243 443.846 24.8401C522.252 22.8673 602.11 14.1383 680.675 15.5955C678.874 15.8374 677.108 16.0788 675.496 16.2963C661.629 18.1153 647.449 19.1185 633.49 20.6151C589.06 25.3574 544.335 28.5929 499.559 31.7212C444.001 35.631 386.015 39.1442 327.553 41.2395C306.629 41.347 285.775 41.4534 264.921 41.5168C219.807 41.6494 174.467 40.7923 129.437 39.4126C115.878 38.9822 102.32 38.5302 88.7619 38.1645C84.2659 38.0351 72.6739 37.6411 71.0598 37.7075C69.0596 37.7796 68.6886 38.821 68.656 38.9942C68.5563 39.3842 68.6343 39.9227 69.6237 40.3618C69.73 40.425 70.3649 40.6319 71.7709 40.7411C153.705 47.201 241.093 47.214 327.524 44.1324C418.732 43.6156 510.284 42.6406 601.254 41.6955C602.556 41.6767 603.611 41.0138 603.61 40.2151C603.605 39.4164 602.546 38.784 601.244 38.7812C535.374 39.4722 469.17 40.1683 403.031 40.7121Z" fill="#4f84a6"/>
</svg>
