<svg width="170" height="170" viewBox="0 0 170 170" fill="none"
    xmlns="http://www.w3.org/2000/svg">
    <circle cx="85" cy="85" r="85" fill="#315c6d"/>
    <path d="M104.971 116H65.0288C59.5092 116 55 111.491 55 105.971V66.0287C55 60.5092 59.5092 56 65.0288 56H104.971C110.491 56 115 60.5092 115 66.0287V105.971C115 111.515 110.515 116 104.971 116Z" fill="white"/>
    <path d="M85.0123 101.413C80.8974 101.413 77.0288 99.8111 74.1212 96.9035C71.2136 93.9959 69.6119 90.1273 69.6119 86.0123C69.6119 81.8974 71.2136 78.0288 74.1212 75.1212C77.0288 72.2136 80.8974 70.6119 85.0123 70.6119C89.1273 70.6119 92.9959 72.2136 95.9035 75.1212C98.8111 78.0288 100.413 81.8974 100.413 86.0123C100.413 90.1273 98.8111 93.9959 95.9035 96.9035C92.9713 99.8111 89.1273 101.413 85.0123 101.413ZM85.0123 73.8891C78.3347 73.8891 72.8891 79.3101 72.8891 86.0123C72.8891 92.69 78.3101 98.1355 85.0123 98.1355C91.69 98.1355 97.1356 92.7146 97.1356 86.0123C97.1109 79.3347 91.69 73.8891 85.0123 73.8891Z" fill="black"/>
    <path d="M103.415 70.1058C105.048 70.1058 106.371 68.7819 106.371 67.1488C106.371 65.5158 105.048 64.1919 103.415 64.1919C101.781 64.1919 100.458 65.5158 100.458 67.1488C100.458 68.7819 101.781 70.1058 103.415 70.1058Z" fill="black"/>
</svg>
